# xmcd
#
# Track frame offsets: 
#        300
#        22320
#        42161
#        61981
#        77798
#        98976
#        113644
#        134919
#        175077
#        200648
#        223462
#
# Disc length: 3283 seconds
#
# Revision: 0
# Processed by: cddbd v1.5.2PL0 Copyright (c) Steve Scherf et al.
# Submitted via: ExactAudioCopy v1.0b1
#
DISCID=ac0ccf0b
DTITLE=Robert Cray - Nothin But Love
DYEAR=2012
DGENRE=Contemporary Blues
TTITLE0=[Won't Be] Coming Home
TTITLE1=Worry
TTITLE2=I'll Always Remember You
TTITLE3=Side Dish
TTITLE4=A Memo
TTITLE5=Blues Get Off My Shoulder
TTITLE6=Fix This
TTITLE7=i'm Done Cryin'
TTITLE8=Great Big Old House
TTITLE9=Sadder Days
TTITLE10=You Belong To Me
EXTD=
EXTT0=
EXTT1=
EXTT2=
EXTT3=
EXTT4=
EXTT5=
EXTT6=
EXTT7=
EXTT8=
EXTT9=
EXTT10=
PLAYORDER=
